<?xml version="1.0" encoding="UTF-8"?>
<svg id="Layer_2" data-name="Layer 2" xmlns="http://www.w3.org/2000/svg" width="359.54" height="359.86" viewBox="0 0 359.54 359.86">
  <defs>
    <style>
      .cls-1 {
        fill: #fff;
      }
    </style>
  </defs>
  <g id="Layer_1-2" data-name="Layer 1">
    <g>
      <path class="cls-1" d="M169.12.33c145.82-8.63,240.61,152.3,162.15,276.47-70.61,111.75-235.57,110.5-304.53-2.25C-44.3,158.4,34.08,8.33,169.12.33ZM169.12,12.33C45.47,20.08-27.64,156.27,34.68,264.34c64.42,111.7,226.25,111.31,290.41-.47C391.73,147.77,301.78,4.02,169.12,12.33Z"/>
      <path class="cls-1" d="M171.03,74.63c5.22-5.57,15.33-4.16,19.09,2.47l20.29,60.67,63.22.41c8.56,1.5,12.78,10.57,8.56,18.2-16.41,14.71-35.79,26.07-52.94,40l19.29,60.7c1.52,10.29-10.47,17.54-18.88,11.41l-49.59-35.89-52.2,36.91c-8.11,4.17-17.77-2.75-16.99-11.74l19.32-61.44-50-36.83c-8.21-6.72-4.68-19.5,5.69-21.32l63.22-.41,19.6-59.11c.56-1.27,1.42-3.04,2.35-4.03ZM151.68,150.11h-63.25c.09.82.97,1.32,1.56,1.81,14.01,11.66,35.8,22.87,48.21,34.95,3.62,3.53,5.03,7.73,3.78,12.78l-18.74,58.47,49.53-35.88c6.53-3.63,9.23-2.8,15.31.9,12.96,7.9,26.7,19.81,39.34,28.83,1,.72,7.95,5.95,8.47,5.38l-18.37-57.71c-1.24-4.82.16-9.48,3.78-12.78l49.77-36.76h-63.25c-3.15,0-7.41-4.95-8.75-7.73-7.6-15.77-11.8-39.48-18.38-56.62-.36-.94.34-1.98-1.31-1.65l-18.95,58.27c-1.27,3.23-5.38,7.17-8.75,7.73Z"/>
      <path class="cls-1" d="M148.08,38.88c-2.05,1.86-20.89,7.03-25.72,9.11-46.64,20.07-79.97,65.38-85.57,116.01-.48,4.37-.11,16.08-1.32,18.93-2.16,5.08-10.65,4.3-11.43-2.42-.54-4.7.26-12.37.77-17.26,5.72-54.69,41.51-103.69,91.56-125.76,5.28-2.33,22.89-9.25,27.81-8.92,5.34.36,7.67,6.9,3.9,10.31Z"/>
      <path class="cls-1" d="M169.87,24.34c2.92-.34,7.41-.57,10.27-.24,7.61.88,7.62,11.14,0,12.03-2.1.25-10.97.88-12.67.73-2.14-.2-5.01-2.03-5.52-4.28-1.44-6.26,2.83-7.64,7.92-8.24Z"/>
    </g>
  </g>
</svg>