<?xml version="1.0" encoding="UTF-8"?>
<svg id="Layer_2" data-name="Layer 2" xmlns="http://www.w3.org/2000/svg" width="375.77" height="312.68" viewBox="0 0 375.77 312.68">
  <defs>
    <style>
      .cls-1 {
        fill: #fff;
      }
    </style>
  </defs>
  <g id="Layer_1-2" data-name="Layer 1">
    <path class="cls-1" d="M197.61,13.27v35.18l52.06-10.38,25.79,10.38v25.45l37.79-6.79,21.35,9.41v228.68h41.17v7.49H0v-7.49h41.17V28.24L162.2,0l35.41,13.27ZM158.69,8.78l-110.04,25.45v15.72l110.04-25.45v-15.72ZM190.13,18.51l-23.95-8.98v295.67h23.95V18.51ZM158.69,47.7v-14.6l-110.04,25.45v14.6l110.04-25.45ZM245.52,46.95l-47.91,8.98v15.72l47.91-8.98v-15.72ZM267.98,305.2V54.06l-14.97-6.36v257.5h14.97ZM158.69,55.94l-110.04,25.45v15.72l110.04-26.57v-14.6ZM245.52,70.16l-47.91,10.11v15.35l47.91-9.73v-15.72ZM309.15,75.4l-33.68,5.99v15.72l33.68-5.99v-15.72ZM327.11,80.64l-10.48-3.74v228.3h10.48V80.64ZM158.69,79.14l-110.04,25.45v15.72l110.04-25.45v-15.72ZM245.52,109.83v-16.47l-47.91,9.73v15.72l47.91-8.98ZM309.15,98.6l-33.68,5.99v15.72l33.68-6.36v-15.35ZM158.69,103.09l-110.04,25.82v15.35l110.04-26.57v-14.6ZM245.52,117.32l-47.91,10.11v14.6l47.91-8.98v-15.72ZM309.15,122.55l-33.68,5.99v15.72l33.68-5.99v-15.72ZM158.69,126.3l-110.04,25.45v15.72l110.04-25.45v-15.72ZM245.52,140.52l-47.91,9.73v15.72l47.91-10.11v-15.35ZM309.15,145.76l-33.68,5.99v15.72l33.68-5.99v-15.72ZM158.69,165.22v-14.6l-110.04,25.45v14.6l110.04-25.45ZM245.52,164.47l-47.91,8.98v15.72l47.91-8.98v-15.72ZM309.15,185.43v-16.47l-33.68,5.99v16.47l33.68-5.99ZM158.69,173.46l-110.04,25.45v15.72l110.04-26.57v-14.6ZM245.52,187.68l-47.91,10.11v15.35l47.91-9.73v-15.72ZM309.15,192.92l-33.68,5.99v15.72l33.68-5.99v-15.72ZM158.69,196.66l-110.04,25.45v15.72l110.04-25.45v-15.72ZM245.52,227.35v-16.47l-47.91,9.73v15.72l47.91-8.98ZM309.15,216.12l-33.68,5.99v15.72l33.68-6.36v-15.35ZM158.69,220.61l-110.04,25.82v15.35l110.04-26.57v-14.6ZM245.52,234.84l-47.91,10.11v14.6l47.91-8.98v-15.72ZM309.15,240.08l-33.68,5.99v15.72l33.68-5.99v-15.72ZM158.69,243.82c-5.44.87-11.56,2.08-16.47,4.12v57.26h16.47v-61.38ZM134.74,305.2v-56.14l-15.72,3.74v52.4h15.72ZM111.53,255.05l-15.72,2.99v47.16h15.72v-50.15ZM245.52,258.04l-10.48,2.25v44.91h10.48v-47.16ZM88.33,260.29c-5.17,1.04-11.09,1.73-15.72,4.12v40.8h15.72v-44.91ZM227.56,261.78l-11.23,2.25v41.17h11.23v-43.42ZM309.15,263.28l-12.73,2.25v39.67h12.73v-41.92ZM65.12,265.53l-16.47,3.74v35.93h16.47v-39.67ZM208.84,265.53l-11.23,2.25v37.43h11.23v-39.67ZM288.19,267.02l-12.73,2.25v35.93h12.73v-38.18Z"/>
  </g>
</svg>