<?xml version="1.0" encoding="UTF-8"?>
<svg id="Layer_2" data-name="Layer 2" xmlns="http://www.w3.org/2000/svg" width="409.6" height="409" viewBox="0 0 409.6 409">
  <defs>
    <style>
      .cls-1 {
        fill: #fff;
      }
    </style>
  </defs>
  <g id="Layer_1-2" data-name="Layer 1">
    <path class="cls-1" d="M409.6,192.62v23.95c-1.22,4.9-1.05,10.36-1.71,15.46-11.77,90.04-85.24,163.66-175.54,175.26-5.1.66-10.57.5-15.48,1.71h-23.99c-4.91-1.22-10.38-1.05-15.48-1.71C87.21,395.53,13.47,322.18,1.85,232.03c-.66-5.09-.5-10.56-1.71-15.46.33-7.94-.44-16.03,0-23.95C6.3,82.02,102.47-4.18,213.31.16c104.13,4.08,190.52,88.68,196.29,192.46ZM340.83,321.96c1.57.41,1.54-.65,2.25-1.34,9.12-8.98,20.16-28.15,25.63-39.89,47.56-102.1-9.93-223.47-118.7-250.94C122.41-2.42,5.6,105.92,26.76,235.1c5.25,32.07,20.14,62.2,40.96,86.86,1.72.35,1.06-.71,1.4-1.76,1.69-5.25,2.98-10.64,5-15.78,14.03-35.81,45.39-66.77,81.96-79.06,1.02-1.14-6.5-6.13-7.62-7.16-39.91-36.62-40.32-98.72,3.25-132.53,64.58-50.12,155.61,8.78,136.88,87.96-4.84,20.44-18.06,38.38-34.93,50.54,5.53,3.27,11.64,5.23,17.32,8.25,34.16,18.15,61.16,51.71,69.84,89.56ZM198.31,91.45c-40.92,4.19-66.57,47.41-50.9,85.48,19.46,47.3,85.69,51.74,111.19,7.44,25.36-44.07-10-98.07-60.28-92.92ZM320.72,343.39c-9.73-84.29-104.17-131.01-177.36-85.63-30.05,18.63-49.95,50.16-54.5,85.24,60.02,49.89,146.14,55.9,212.4,14.11,6.75-4.26,12.87-9.29,19.47-13.73Z"/>
  </g>
</svg>